<svg width="6" height="6" viewBox="0 0 6 6" fill="none" xmlns="http://www.w3.org/2000/svg">
<g clip-path="url(#clip0_4_138)">
<path d="M2.97 2.285C3.29 2.3 3.3725 2.5725 3.3775 2.7H3.825C3.805 2.205 3.4525 1.9025 2.9625 1.9025C2.41 1.9025 2 2.25 2 3.035C2 3.52 2.2325 4.095 2.96 4.095C3.515 4.095 3.8125 3.6825 3.82 3.3575H3.3725C3.365 3.505 3.26 3.7025 2.965 3.7175C2.6375 3.7075 2.5 3.4525 2.5 3.035C2.5 2.3125 2.82 2.29 2.97 2.285ZM3 0.5C1.62 0.5 0.5 1.62 0.5 3C0.5 4.38 1.62 5.5 3 5.5C4.38 5.5 5.5 4.38 5.5 3C5.5 1.62 4.38 0.5 3 0.5ZM3 5C1.8975 5 1 4.1025 1 3C1 1.8975 1.8975 1 3 1C4.1025 1 5 1.8975 5 3C5 4.1025 4.1025 5 3 5Z" fill="white"/>
</g>
<defs>
<clipPath id="clip0_4_138">
<rect width="6" height="6" fill="white"/>
</clipPath>
</defs>
</svg>
