<svg width="21" height="20" viewBox="0 0 21 20" fill="none" xmlns="http://www.w3.org/2000/svg">
<path d="M6.196 0H14.596C17.796 0 20.396 2.6 20.396 5.8V14.2C20.396 15.7383 19.7849 17.2135 18.6972 18.3012C17.6095 19.3889 16.1343 20 14.596 20H6.196C2.996 20 0.395996 17.4 0.395996 14.2V5.8C0.395996 4.26174 1.00707 2.78649 2.09478 1.69878C3.18249 0.61107 4.65774 0 6.196 0ZM5.996 2C5.04122 2 4.12554 2.37928 3.45041 3.05442C2.77528 3.72955 2.396 4.64522 2.396 5.6V14.4C2.396 16.39 4.006 18 5.996 18H14.796C15.7508 18 16.6665 17.6207 17.3416 16.9456C18.0167 16.2705 18.396 15.3548 18.396 14.4V5.6C18.396 3.61 16.786 2 14.796 2H5.996ZM15.646 3.5C15.9775 3.5 16.2955 3.6317 16.5299 3.86612C16.7643 4.10054 16.896 4.41848 16.896 4.75C16.896 5.08152 16.7643 5.39946 16.5299 5.63388C16.2955 5.8683 15.9775 6 15.646 6C15.3145 6 14.9965 5.8683 14.7621 5.63388C14.5277 5.39946 14.396 5.08152 14.396 4.75C14.396 4.41848 14.5277 4.10054 14.7621 3.86612C14.9965 3.6317 15.3145 3.5 15.646 3.5ZM10.396 5C11.7221 5 12.9938 5.52678 13.9315 6.46447C14.8692 7.40215 15.396 8.67392 15.396 10C15.396 11.3261 14.8692 12.5979 13.9315 13.5355C12.9938 14.4732 11.7221 15 10.396 15C9.06991 15 7.79814 14.4732 6.86046 13.5355C5.92278 12.5979 5.396 11.3261 5.396 10C5.396 8.67392 5.92278 7.40215 6.86046 6.46447C7.79814 5.52678 9.06991 5 10.396 5ZM10.396 7C9.60035 7 8.83728 7.31607 8.27468 7.87868C7.71207 8.44129 7.396 9.20435 7.396 10C7.396 10.7956 7.71207 11.5587 8.27468 12.1213C8.83728 12.6839 9.60035 13 10.396 13C11.1916 13 11.9547 12.6839 12.5173 12.1213C13.0799 11.5587 13.396 10.7956 13.396 10C13.396 9.20435 13.0799 8.44129 12.5173 7.87868C11.9547 7.31607 11.1916 7 10.396 7Z" fill="white"/>
</svg>
