<svg width="20" height="18" viewBox="0 0 20 18" fill="none" xmlns="http://www.w3.org/2000/svg">
<path d="M4.396 2.001C4.39573 2.53143 4.18476 3.04004 3.8095 3.41492C3.43424 3.78981 2.92543 4.00027 2.395 4C1.86456 3.99974 1.35596 3.78877 0.981076 3.41351C0.60619 3.03825 0.395731 2.52943 0.395996 1.999C0.396262 1.46857 0.60723 0.959965 0.98249 0.585079C1.35775 0.210194 1.86656 -0.000264966 2.397 2.50361e-07C2.92743 0.000265467 3.43603 0.211233 3.81092 0.586494C4.1858 0.961754 4.39626 1.47057 4.396 2.001ZM4.456 5.481H0.455996V18.001H4.456V5.481ZM10.776 5.481H6.796V18.001H10.736V11.431C10.736 7.771 15.506 7.431 15.506 11.431V18.001H19.456V10.071C19.456 3.901 12.396 4.131 10.736 7.161L10.776 5.481Z" fill="white"/>
</svg>
