<svg width="21" height="21" viewBox="0 0 21 21" fill="none" xmlns="http://www.w3.org/2000/svg">
<g clip-path="url(#clip0_4_39)">
<path d="M8.55272 17.1005C6.36216 17.1005 4.17259 16.2674 2.50534 14.5991C0.889729 12.9845 0 10.8366 0 8.55272C0 6.26882 0.889729 4.12096 2.50534 2.50534C4.12096 0.889729 6.26783 0 8.55272 0C10.8376 0 12.9845 0.889729 14.6001 2.50534C17.9346 5.83984 17.9346 11.2656 14.6001 14.6001C12.9329 16.2674 10.7423 17.1005 8.55272 17.1005ZM8.55272 1.13599C6.57169 1.13599 4.70981 1.90756 3.30868 3.30868C1.90756 4.70881 1.13599 6.57168 1.13599 8.55272C1.13599 10.5338 1.90756 12.3966 3.30868 13.7968C6.2003 16.6884 10.9051 16.6894 13.7968 13.7968C16.6884 10.9051 16.6884 6.2003 13.7968 3.30868C12.3956 1.90756 10.5338 1.13599 8.55272 1.13599Z" fill="white"/>
<path d="M20.4319 21.0001C20.2869 21.0001 20.141 20.9444 20.0307 20.8332L13.7977 14.6002C13.5762 14.3787 13.5762 14.0193 13.7977 13.7968C14.0191 13.5744 14.3786 13.5754 14.601 13.7968L20.8341 20.0299C21.0555 20.2513 21.0555 20.6108 20.8341 20.8332C20.7219 20.9444 20.5769 21.0001 20.4319 21.0001Z" fill="white"/>
</g>
<defs>
<clipPath id="clip0_4_39">
<rect width="21" height="21" fill="white"/>
</clipPath>
</defs>
</svg>
