<svg width="24" height="15" viewBox="0 0 24 15" fill="none" xmlns="http://www.w3.org/2000/svg">
<path d="M17.8776 2.05544H0.122941C0.0550775 2.05544 0 1.99832 0 1.92795V0.627495C0 0.557118 0.0550775 0.5 0.122941 0.5H17.8776C17.9454 0.5 18.0005 0.557118 18.0005 0.627495V1.92795C18.0005 1.99832 17.9454 2.05544 17.8776 2.05544Z" fill="white"/>
<path d="M23.8771 8.27822H6.12343C6.05557 8.27822 6.00049 8.2211 6.00049 8.15073V6.85027C6.00049 6.7799 6.05557 6.72278 6.12343 6.72278H23.878C23.9459 6.72278 24.001 6.7799 24.001 6.85027V8.15073C24 8.2211 23.9449 8.27822 23.8771 8.27822Z" fill="white"/>
<path d="M17.8776 14.5H0.122941C0.0550775 14.5 0 14.4429 0 14.3725V13.0721C0 13.0017 0.0550775 12.9446 0.122941 12.9446H17.8776C17.9454 12.9446 18.0005 13.0017 18.0005 13.0721V14.3725C18.0005 14.4429 17.9454 14.5 17.8776 14.5Z" fill="white"/>
</svg>
