<?xml version="1.0" encoding="utf-8"?>
<!-- Generator: Adobe Illustrator 24.0.2, SVG Export Plug-In . SVG Version: 6.00 Build 0)  -->
<svg version="1.1" id="Layer_1" xmlns="http://www.w3.org/2000/svg" xmlns:xlink="http://www.w3.org/1999/xlink" x="0px" y="0px"
	 viewBox="0 0 1112.74 211.45" style="enable-background:new 0 0 1112.74 211.45;" xml:space="preserve">
<style type="text/css">
	.st0{fill:#ECECEC;}
</style>
<rect x="-426.63" y="5719.72" width="1920" height="1080"/>
<g>
	<g>
		<path class="st0" d="M149.81,10.04c-4.14-10.62-12.67-9.73-12.67-9.73l-34.84,0.28H55.6L20.76,0.31c0,0-8.53-0.89-12.67,9.73
			L0,35.69l3.34,3.51c0,0,14.46-29.24,52.27-30.41h17.6l-0.55,175.96c0,0,1.01,18.43-10.83,22.92c-1.71,0.15-3.07,1.64-3.07,3.48
			h1.61c0.58,0,1.15,0,1.72,0c12.76,0,24.77,0,36.7,0c0.7,0,1.39,0,2.09,0h1.24c0-1.84-1.35-3.33-3.06-3.48
			c-11.86-4.49-10.84-22.92-10.84-22.92L87.67,8.78h14.63c37.81,1.17,52.27,30.41,52.27,30.41l3.34-3.51L149.81,10.04z"/>
		<path class="st0" d="M259.92,0.13h-1.17h-24.56v1.1v2.34c0,0,10.43,0.79,14.53,10.07c1.21,3.05,1.68,6.52,1.69,10.22
			c0.1,54.56,0.11,109.12,0.03,163.67c-0.01,9.35-2.91,17.29-12.46,21.21c-0.57,0.23-0.9,1.05-2.01,2.41c15.92,0,30.9,0,45.89,0
			c-0.84-2.04-1.83-2.92-2.97-3.52c-6.3-3.29-9.35-8.58-9.72-15.55c-0.24-4.47-0.64-8.95-0.65-13.42c-0.05-25.33-0.08-50.67,0.02-76
			c0.11-26.69,0.34-53.39,0.6-80.08c0.07-7.57,2.31-13.79,8.92-17.12c3.42-1.65,6.44-1.88,6.44-1.88V1.23v-1.1H259.92z"/>
		<path class="st0" d="M618.81,208.53c-7.82-3.15-12.7-9.1-14.14-16.21c-0.01-0.06-0.02-0.11-0.03-0.17
			c-0.05-0.34-0.09-0.71-0.14-1.06l0,0l-0.08-0.64c-0.05-0.37-0.1-0.71-0.15-1.09c0-0.01,0-0.03,0-0.04l-0.2-1.51l0,0
			c-0.03-0.2-0.05-0.41-0.08-0.62l-0.03-0.19l0,0c-0.05-0.4-0.1-0.79-0.15-1.21c-1.64-13.26-3.8-33.8-7.05-65.63L584.34,0h-1.69
			c-82.15,157.34-84.69,162.15-91.18,177.67h-0.28c-7.62-16.32-9.03-19.8-89.21-177.67h-1.69l-13.83,120.14
			c-4.36,38.51-6.83,60.5-8.62,73.06c-0.24,1.71-0.71,3.38-1.53,4.91c-2.41,4.5-6.49,8.17-12.06,10.41
			c-0.56,0.23-0.89,1.01-1.97,2.33c3.69,0,7.32,0,10.91,0h10.73h11.86h7.89c1.89,0,2.57-2.51,0.91-3.38
			c-0.02-0.01-0.03-0.02-0.05-0.03c-6.2-3.18-9.2-8.29-9.57-15.04c-0.04-0.73-0.09-2.87-0.14-5.07c-0.08-3.28,0.04-6.54,0.36-9.8
			c1.27-13.11,3.32-31.52,6.24-57.39c4.52-41.74,6.21-58.07,7.06-75.19h0.56c8.47,21.41,20.61,44.69,35.85,74.92
			c8.82,17.37,20.31,39.28,34.46,67.02l11.69,24.24l31.77-65.38c5.04-9.59,9.54-18.18,13.55-25.88
			c16.09-30.51,27.38-51.11,37.55-74.39h0.56c0.56,16.86,1.98,31.57,6.49,74.65c3.96,37.42,6.27,59.24,7.15,71.97
			c0,0.09,0,0.18,0,0.28c-0.36,6.75-3.36,11.87-9.57,15.06c-0.02,0.01-0.03,0.02-0.05,0.03c-1.67,0.87-0.98,3.38,0.91,3.38h6.92
			h12.7h10.44c3.73,0,7.49,0,11.31,0C619.69,209.54,619.37,208.75,618.81,208.53z"/>
	</g>
	<path class="st0" d="M1108.01,199.09c-2.13,0.41-4.24,0.76-6.36,0.99c-12.73,1.36-25.45,0.04-35.08-8.28
		c-10.67-9.2-20.49-19.47-29.46-30.18c-9.87-11.8-18.05-24.85-27.54-36.95c-6.78-8.64-9.14-8.02,2.58-15.44
		c16.28-10.31,24.67-24.19,25.58-40.94c0.96-26.77-15.87-42.17-19.34-45.05c-3.87-2.95-8.24-5.47-13.08-7.58c0,0-0.01,0-0.01,0
		c-14.38-5.39-31.34-6.71-40.54-7.02l-6.57-0.1c-6.24,0-0.21,0.02-1.03,0.04v0c-6.96,0.22-13.03,0.06-18.29-0.34
		c-24.72-1.25-30.6-8.18-30.6-8.18h-2.94v0.21v32.69v0.41h2.94c0,0,0.01-0.02,0.02-0.04c0-0.01,0.01-0.02,0.01-0.03
		c0.01-0.03,0.03-0.06,0.04-0.1c0.01-0.02,0.02-0.04,0.03-0.05c0.02-0.05,0.05-0.1,0.08-0.16c0.01-0.02,0.02-0.04,0.04-0.07
		c0.05-0.09,0.11-0.19,0.18-0.3c0.09-0.14,0.2-0.29,0.32-0.46c0,0,0,0,0.01-0.01c0.1-0.14,0.21-0.28,0.34-0.43
		c0.08-0.1,0.17-0.2,0.27-0.31c0.01-0.01,0.02-0.02,0.02-0.03c0.26-0.29,0.57-0.61,0.93-0.94c0.06-0.06,0.13-0.12,0.2-0.18
		c0.09-0.08,0.19-0.16,0.28-0.25c0.09-0.08,0.19-0.16,0.29-0.24c0.09-0.08,0.18-0.15,0.28-0.23c0.19-0.15,0.39-0.31,0.6-0.46
		c0.07-0.05,0.15-0.11,0.23-0.16c0.16-0.12,0.33-0.24,0.51-0.36c0.09-0.06,0.19-0.13,0.29-0.19c0.19-0.12,0.38-0.25,0.58-0.37
		c0.09-0.05,0.17-0.11,0.26-0.17c0.3-0.18,0.6-0.37,0.93-0.55c0.02-0.01,0.04-0.02,0.06-0.03c0.31-0.17,0.64-0.35,0.98-0.53
		c0.1-0.05,0.2-0.1,0.29-0.15c0.29-0.15,0.58-0.29,0.89-0.44c0.1-0.05,0.2-0.1,0.3-0.15c0.82-0.38,1.71-0.77,2.68-1.15
		c0.1-0.04,0.21-0.08,0.31-0.12c0.4-0.15,0.8-0.31,1.22-0.46c0.13-0.05,0.25-0.09,0.38-0.14c0.49-0.17,1-0.35,1.53-0.52
		c0.04-0.01,0.08-0.03,0.12-0.04c0.58-0.19,1.19-0.38,1.82-0.56c0.11-0.03,0.22-0.07,0.34-0.1c0.51-0.15,1.04-0.3,1.58-0.44
		c0.17-0.05,0.34-0.09,0.51-0.14c0.56-0.15,1.13-0.29,1.72-0.43c0.12-0.03,0.24-0.06,0.36-0.09c0.72-0.17,1.47-0.34,2.23-0.5
		c0.12-0.03,0.25-0.05,0.37-0.08c0.64-0.14,1.31-0.27,1.98-0.4c0.22-0.04,0.45-0.08,0.67-0.13c0.64-0.12,1.29-0.23,1.96-0.35
		c0.21-0.03,0.41-0.07,0.62-0.11c0.87-0.14,1.77-0.28,2.7-0.42c0.09-0.01,0.19-0.03,0.28-0.04c0.82-0.12,1.67-0.23,2.53-0.34
		c0.29-0.04,0.58-0.07,0.87-0.11c0.73-0.09,1.47-0.17,2.23-0.25c0.29-0.03,0.58-0.06,0.88-0.09c1.04-0.11,2.1-0.21,3.19-0.31
		c0,0,22.24-2.92,45.61,5.89c0.67,0.31,1.35,0.63,2.03,0.95c4.79,2.76,8.83,6.57,11.68,11.16c4.93,7.94,9.84,21.18,5.62,39.42
		l0.01,0c-0.01,0.02-0.01,0.04-0.02,0.06c-1.99,8.58-6,18.26-12.98,29.03c-0.48,0.74-1.07,1.37-1.73,1.91
		c-0.97,1.21-1.84,2.16-2.57,2.88c-1.22,1.22-3.19,1.38-4.64,0.39c-7.48-5.11-17.7-8.98-21.09-10.19c-0.68-0.24-1.36-0.45-2.07-0.61
		c-1.96-0.44-4.02-0.83-5.91-1.14c-0.39-0.07-0.78-0.16-1.18-0.23c-1.31-0.24-2.6-0.4-3.88-0.53c-1.02-0.13-1.66-0.21-1.66-0.21
		c-20.13-2.93-46.31,12.72-47.52,13.45c-0.02,0.03-0.03,0.05-0.04,0.08c0.07,2.91,5.64,0.46,5.64,0.46l0.77-0.23
		c4.76-1.37,9.37-2.77,14.05-3.83c19.61-4.45,37.37-1.72,51.83,12.65c4.02,4,8.07,8.06,11.48,12.52
		c10.89,14.25,21.2,28.91,32.3,43.01c9.33,11.85,19.59,23.02,34.22,29.51c17.06,7.57,34.2,8.08,51.29,0.2
		c0.3-0.14,0.6-0.22,0.9-0.82C1109.97,201.3,1110.78,202.23,1108.01,199.09z"/>
	<path class="st0" d="M830.61,0.15h-0.89h-18.78V1.2c0,1.24,0.82,2.32,2,2.7c0.83,0.27,1.85,0.69,2.92,1.33
		c2.83,1.78,4.59,4.46,5.62,7.72c0.07,0.23,0.11,0.45,0.13,0.69c0.71,10.4,0.71,31.33,0.71,73.42v33.8
		c0,25.88-4.76,44.36-14.55,57.04c-11.37,14.26-28.04,19.81-47.62,19.81c-17.72,0-36.5-7.66-46.29-21.92
		c-8.73-12.41-12.43-28.26-12.43-52.29V87.07c0-32.42,0-52.28,0.35-64.46h0.02c0-0.23,0-0.45,0-0.68c0.01-0.48,0.03-0.95,0.05-1.41
		c0.23-6.74,2.06-12.27,7.05-15.29c2.72-1.58,5.12-1.8,5.12-1.8V1.2V0.15h-19.54h-0.93h-19.54V1.2v2.24c0,0,8.29,0.76,11.55,9.63
		c0.18,0.55,0.32,1.12,0.46,1.69c0.59,10.76,0.59,31.66,0.59,72.31v38.03c0,29.05,5.03,45.95,16.14,60.47
		c12.96,17.43,33.07,25.88,56.87,25.88c23.81,0,44.44-8.19,57.4-23.5c13.49-15.32,19.57-36.44,19.57-65.76V87.07
		c0-35.36,0-55.79,0.35-67.58c0-0.14,0.02-0.28,0.04-0.42c0.46-2.6,0.95-4.9,1.29-6c2.16-6.11,6.61-8.37,9.18-9.19
		c1.16-0.37,1.93-1.46,1.93-2.68v0V0.15H830.61z"/>
</g>
</svg>
